<?xml version="1.0" standalone="no"?>
<!DOCTYPE svg PUBLIC "-//W3C//DTD SVG 20010904//EN"
 "http://www.w3.org/TR/2001/REC-SVG-20010904/DTD/svg10.dtd">
<svg version="1.0" xmlns="http://www.w3.org/2000/svg"
 width="260.000000pt" height="96.000000pt" viewBox="0 0 260.000000 96.000000"
 preserveAspectRatio="xMidYMid meet">

<g transform="translate(0.000000,96.000000) scale(0.100000,-0.100000)"
fill="#000000" stroke="none">
<path d="M1049 735 c-1 -3 -2 -9 -3 -14 0 -5 -5 -13 -10 -18 -5 -5 -6 -3 -2 5
4 6 3 12 -2 12 -16 0 -38 -59 -61 -158 -17 -73 -19 -97 -10 -108 15 -18 39
-17 63 1 17 13 22 13 38 -2 16 -14 24 -15 48 -6 18 7 32 7 36 2 3 -5 11 -9 18
-9 17 0 69 40 62 48 -3 2 -12 -1 -21 -8 -13 -11 -15 -9 -15 12 0 14 7 47 15
74 8 27 15 52 15 55 0 3 -22 3 -50 -1 -60 -8 -93 -35 -116 -96 -17 -44 -40
-64 -42 -36 -1 24 17 116 35 175 13 43 17 49 38 45 28 -6 50 5 41 21 -7 11
-75 16 -77 6z m71 -138 c0 -2 -10 -12 -22 -23 l-23 -19 19 23 c18 21 26 27 26
19z m38 -19 c-3 -7 -11 -34 -19 -60 -14 -50 -20 -56 -37 -35 -12 14 9 85 30
98 19 13 31 11 26 -3z"/>
<path d="M800 690 c0 -5 -7 -6 -17 -3 -12 5 -14 3 -8 -7 6 -10 4 -12 -7 -7
-10 3 -25 -5 -39 -20 -13 -15 -18 -23 -10 -18 9 5 12 3 9 -6 -3 -8 -10 -13
-15 -12 -6 1 -8 -10 -6 -25 3 -23 2 -24 -6 -7 -8 18 -10 16 -10 -10 -1 -35 23
-75 45 -75 18 0 18 14 -1 30 -63 52 82 186 154 141 11 -7 11 -15 1 -43 -17
-46 -44 -48 -36 -2 5 22 2 34 -6 36 -25 9 -48 -4 -48 -26 0 -35 -38 -160 -49
-164 -6 -2 -11 -10 -11 -18 0 -19 99 -19 145 0 54 23 75 91 36 118 -19 13 -19
14 -2 25 30 19 33 52 6 79 -19 19 -35 24 -75 24 -27 0 -50 -4 -50 -10z m-40
-24 c0 -2 -8 -10 -17 -17 -16 -13 -17 -12 -4 4 13 16 21 21 21 13z m120 -111
c18 -21 -1 -67 -34 -83 -15 -8 -29 -12 -31 -10 -2 2 3 27 11 56 16 53 32 64
54 37z"/>
<path d="M1878 687 c-9 -9 -18 -14 -22 -12 -3 3 -4 2 -1 -1 2 -4 -7 -20 -20
-36 -14 -16 -25 -37 -25 -46 0 -15 -2 -15 -10 -2 -8 12 -10 11 -10 -5 0 -26
27 -65 46 -65 16 0 19 16 4 25 -15 9 -12 58 6 83 14 21 44 31 44 15 -1 -28
-42 -160 -52 -168 -30 -24 -18 -35 37 -35 30 0 55 5 55 10 0 6 -7 10 -16 10
-12 0 -14 7 -9 33 10 46 22 54 30 19 17 -78 100 -147 150 -124 26 12 34 42 13
42 -7 1 0 8 16 16 20 11 31 13 39 5 18 -18 42 -13 67 14 13 14 18 25 12 25 -6
0 -14 -4 -17 -10 -17 -27 -22 -4 -9 48 19 82 18 94 -8 90 -17 -2 -25 -14 -34
-51 -7 -27 -21 -58 -31 -70 -12 -14 -13 -18 -3 -12 12 6 13 5 3 -5 -21 -23
-27 -2 -15 51 19 79 17 89 -17 89 -17 0 -33 -5 -37 -12 -5 -7 -2 -8 7 -3 11 6
12 5 2 -6 -16 -17 -17 -33 -1 -23 8 5 9 2 4 -12 -14 -35 -19 -114 -8 -114 14
0 3 -37 -13 -44 -19 -7 -42 23 -70 93 l-24 62 24 9 c26 10 55 47 55 71 0 29
-38 52 -93 57 -40 3 -57 0 -69 -11z m100 -24 c12 -23 -1 -59 -27 -73 -24 -12
-25 -8 -12 38 8 25 7 32 -5 32 -8 0 -14 5 -14 10 0 17 49 11 58 -7z"/>
<path d="M215 673 c-27 -15 -28 -17 -10 -24 30 -11 31 -11 43 16 13 29 8 30
-33 8z"/>
<path d="M401 663 c7 -10 14 -20 16 -22 1 -1 7 0 13 4 8 5 5 11 -7 21 -25 19
-38 17 -22 -3z"/>
<path d="M1819 653 c-13 -16 -12 -17 4 -4 16 13 21 21 13 21 -2 0 -10 -8 -17
-17z"/>
<path d="M1614 635 c-4 -17 -13 -25 -27 -25 -19 0 -19 -1 -4 -12 14 -11 15
-19 7 -48 -14 -50 -12 -86 6 -101 14 -11 22 -10 53 8 36 21 37 21 49 2 7 -10
19 -19 27 -19 24 0 31 31 11 45 -18 13 -74 14 -94 1 -15 -9 -15 3 -1 60 10 37
15 44 35 44 13 0 24 5 24 10 0 6 -9 10 -21 10 -18 0 -20 4 -15 25 6 22 3 25
-19 25 -18 0 -26 -7 -31 -25z"/>
<path d="M147 622 c-21 -23 -47 -85 -47 -113 0 -20 3 -21 58 -14 31 4 58 8 58
8 1 1 4 27 7 59 4 47 3 57 -11 61 -9 3 -24 8 -33 11 -9 4 -22 -1 -32 -12z"/>
<path d="M1274 621 c-18 -13 -34 -49 -23 -53 8 -3 7 -17 -1 -46 -6 -24 -8 -52
-5 -63 10 -31 38 -18 47 21 14 57 29 88 45 94 12 5 14 1 9 -16 -18 -59 -18
-94 -1 -108 14 -12 20 -11 43 2 24 15 29 15 55 0 27 -16 30 -16 65 4 20 12 38
26 39 31 4 11 -33 11 -43 0 -14 -14 -34 -7 -34 12 0 11 9 21 23 25 31 7 67 43
67 67 0 12 -10 23 -25 29 -26 10 -58 3 -50 -10 3 -5 1 -11 -5 -15 -5 -3 -10 0
-10 7 -1 22 -50 -66 -50 -89 0 -12 -9 -27 -19 -33 -18 -9 -19 -7 -15 24 2 19
9 47 14 61 14 38 13 45 -12 54 -25 9 -62 -4 -53 -19 3 -5 1 -11 -5 -15 -5 -3
-10 3 -10 13 0 20 -30 35 -46 23z m233 -48 c-3 -26 -27 -46 -27 -23 0 14 19
50 26 50 2 0 3 -12 1 -27z"/>
<path d="M256 585 c-3 -9 -6 -30 -6 -47 0 -23 4 -29 16 -24 9 3 29 6 45 6 25
0 29 4 29 29 0 34 -3 36 -46 45 -24 5 -33 3 -38 -9z"/>
<path d="M420 512 c-36 -5 -43 -16 -35 -51 6 -26 11 -31 36 -31 34 0 41 13 31
55 -6 25 -11 29 -32 27z"/>
<path d="M163 466 c-28 -6 -55 -14 -58 -18 -20 -20 58 -148 89 -148 7 0 25 13
40 29 l28 29 -22 61 c-13 34 -23 60 -24 60 0 -1 -24 -6 -53 -13z"/>
<path d="M412 401 c-12 -7 -11 -25 5 -85 8 -28 21 -7 28 47 7 48 -1 59 -33 38z"/>
<path d="M468 364 l-4 -35 18 23 c21 28 23 48 4 48 -8 0 -15 -14 -18 -36z"/>
<path d="M331 371 l-24 -18 29 -37 c39 -48 58 -48 50 2 -15 80 -17 82 -55 53z"/>
<path d="M739 346 c8 -10 9 -16 1 -21 -5 -3 -10 -11 -10 -17 0 -7 6 -6 15 2
20 16 19 36 -1 44 -14 5 -15 4 -5 -8z"/>
<path d="M813 353 c-17 -6 -16 -28 2 -43 9 -8 15 -9 15 -2 0 6 -5 14 -10 17
-8 5 -7 11 1 21 12 15 11 15 -8 7z"/>
<path d="M892 337 c-19 -19 -22 -19 -22 -4 0 9 -4 17 -10 17 -5 0 -10 -11 -10
-25 0 -28 12 -32 30 -10 7 8 16 15 21 15 5 0 9 -7 9 -15 0 -8 5 -15 10 -15 12
0 14 47 2 54 -5 3 -18 -5 -30 -17z"/>
<path d="M950 329 c0 -28 2 -30 32 -27 57 5 48 57 -9 58 -19 0 -23 -5 -23 -31z
m50 11 c0 -5 -7 -10 -15 -10 -8 0 -15 5 -15 10 0 6 7 10 15 10 8 0 15 -4 15
-10z m3 -27 c-7 -2 -19 -2 -25 0 -7 3 -2 5 12 5 14 0 19 -2 13 -5z"/>
<path d="M1047 354 c-11 -11 -9 -42 4 -50 6 -3 18 1 27 9 14 15 17 15 28 -1
12 -15 13 -13 14 16 0 37 -9 40 -36 11 l-19 -21 -5 22 c-3 12 -8 18 -13 14z"/>
<path d="M1195 348 c-4 -10 -4 -26 0 -35 5 -12 9 -14 12 -5 6 14 43 16 43 2 0
-5 5 -10 10 -10 6 0 10 11 10 25 0 14 -4 25 -10 25 -5 0 -10 -4 -10 -10 0 -17
-38 -11 -43 8 -4 16 -4 16 -12 0z"/>
<path d="M1329 351 c12 -8 9 -11 -12 -17 -39 -9 -28 -29 16 -31 30 -1 37 3 37
18 0 10 -9 23 -19 29 -24 12 -41 13 -22 1z m16 -31 c-3 -5 -13 -10 -21 -10 -8
0 -12 5 -9 10 3 6 13 10 21 10 8 0 12 -4 9 -10z"/>
<path d="M1408 353 c-10 -2 -18 -13 -18 -24 0 -23 41 -35 67 -20 15 9 12 10
-13 5 -20 -4 -34 -1 -39 6 -10 16 15 31 40 24 16 -4 17 -3 5 5 -8 6 -17 10
-20 10 -3 -1 -13 -3 -22 -6z"/>
<path d="M1483 353 c10 -3 17 -14 17 -29 0 -14 4 -22 10 -19 6 3 10 15 10 25
0 10 6 21 13 23 6 3 -6 5 -28 5 -22 0 -32 -2 -22 -5z"/>
<path d="M1606 346 c15 -11 16 -17 7 -27 -16 -16 -47 -3 -39 16 3 8 1 15 -3
15 -19 0 -20 -30 -1 -40 27 -14 46 -12 61 6 11 14 10 18 -6 30 -10 8 -23 14
-29 14 -5 0 -1 -6 10 -14z"/>
<path d="M1674 352 c-5 -4 -10 -17 -10 -28 0 -18 3 -20 17 -11 13 8 22 7 33
-2 14 -12 16 -10 16 18 0 26 -4 31 -22 31 -13 0 -28 -4 -34 -8z m36 -12 c0 -5
-7 -10 -15 -10 -8 0 -15 5 -15 10 0 6 7 10 15 10 8 0 15 -4 15 -10z"/>
<path d="M1756 348 c-16 -35 0 -48 58 -48 34 0 56 -5 59 -12 3 -7 6 4 6 24 1
20 -3 40 -9 43 -6 4 -10 -5 -10 -19 0 -38 -37 -36 -43 2 l-4 27 -2 -27 c-1
-21 -6 -28 -20 -28 -14 0 -21 8 -23 28 -4 22 -6 24 -12 10z"/>
<path d="M1942 337 c-19 -19 -22 -19 -22 -4 0 9 -4 17 -10 17 -5 0 -10 -11
-10 -25 0 -28 12 -32 30 -10 7 8 16 15 21 15 5 0 9 -7 9 -15 0 -8 5 -15 10
-15 12 0 14 47 2 54 -5 3 -18 -5 -30 -17z"/>
<path d="M2000 328 c1 -29 2 -31 13 -16 12 15 14 15 25 0 10 -16 12 -16 27 2
13 17 15 18 15 3 0 -9 5 -17 10 -17 13 0 13 47 1 55 -5 3 -17 -5 -25 -17 l-16
-22 -16 22 c-22 31 -34 27 -34 -10z"/>
<path d="M770 325 c0 -14 5 -25 10 -25 6 0 10 11 10 25 0 14 -4 25 -10 25 -5
0 -10 -11 -10 -25z"/>
<path d="M252 307 c-12 -13 -22 -26 -22 -30 0 -8 89 -21 96 -14 6 6 -36 67
-46 67 -4 0 -16 -10 -28 -23z"/>
</g>
</svg>
